<mxfile host="65bd71144e">
    <diagram id="fEH0jCM9jVXo35o1cyl-" name="Page-1">
        <mxGraphModel dx="2302" dy="1100" grid="1" gridSize="10" guides="1" tooltips="1" connect="1" arrows="1" fold="1" page="1" pageScale="1" pageWidth="850" pageHeight="1100" math="0" shadow="0">
            <root>
                <mxCell id="0"/>
                <mxCell id="1" parent="0"/>
                <mxCell id="47" value="" style="ellipse;whiteSpace=wrap;html=1;strokeColor=#7D7D7D;fontFamily=Consolas;fontSize=11;fillColor=none;dashed=1;strokeWidth=5;perimeterSpacing=2;" vertex="1" parent="1">
                    <mxGeometry x="-580" y="101.8" width="360" height="620" as="geometry"/>
                </mxCell>
                <mxCell id="54" value="&lt;font color=&quot;#195eff&quot; style=&quot;font-size: 32px;&quot;&gt;@threadify&lt;/font&gt;" style="rounded=1;whiteSpace=wrap;html=1;dashed=1;strokeColor=#001DBC;strokeWidth=2;fontFamily=Consolas;fontSize=32;fillColor=none;gradientDirection=radial;arcSize=33;fontColor=#ffffff;perimeterSpacing=0;verticalAlign=bottom;" vertex="1" parent="1">
                    <mxGeometry x="190" y="390" width="580" height="430" as="geometry"/>
                </mxCell>
                <mxCell id="7" value="" style="edgeStyle=none;html=1;" edge="1" parent="1" source="4" target="6">
                    <mxGeometry relative="1" as="geometry"/>
                </mxCell>
                <mxCell id="4" value="&lt;font face=&quot;Consolas&quot; style=&quot;font-size: 21px;&quot;&gt;Register&lt;/font&gt;" style="rounded=1;whiteSpace=wrap;html=1;fontSize=21;" vertex="1" parent="1">
                    <mxGeometry x="510" y="221.8" width="120" height="60" as="geometry"/>
                </mxCell>
                <mxCell id="10" style="edgeStyle=none;html=1;exitX=0;exitY=0.5;exitDx=0;exitDy=0;entryX=1;entryY=0.5;entryDx=0;entryDy=0;startArrow=none;" edge="1" parent="1" source="29" target="9">
                    <mxGeometry relative="1" as="geometry"/>
                </mxCell>
                <mxCell id="53" style="edgeStyle=none;html=1;exitX=0.5;exitY=1;exitDx=0;exitDy=0;fontFamily=Consolas;fontSize=19;" edge="1" parent="1" source="6" target="31">
                    <mxGeometry relative="1" as="geometry"/>
                </mxCell>
                <mxCell id="6" value="#can_connect_ICMP_base" style="rounded=1;whiteSpace=wrap;html=1;fontFamily=Consolas;fillColor=#030303;fontColor=#ffffff;strokeColor=#005700;gradientColor=none;gradientDirection=radial;fontSize=19;" vertex="1" parent="1">
                    <mxGeometry x="380" y="400" width="300" height="90" as="geometry"/>
                </mxCell>
                <mxCell id="16" style="edgeStyle=none;html=1;" edge="1" parent="1" source="9" target="15">
                    <mxGeometry relative="1" as="geometry"/>
                </mxCell>
                <mxCell id="17" style="edgeStyle=none;html=1;" edge="1" parent="1" source="9" target="14">
                    <mxGeometry relative="1" as="geometry"/>
                </mxCell>
                <mxCell id="18" style="edgeStyle=none;html=1;" edge="1" parent="1" source="9" target="13">
                    <mxGeometry relative="1" as="geometry"/>
                </mxCell>
                <mxCell id="19" style="edgeStyle=none;html=1;" edge="1" parent="1" source="9" target="12">
                    <mxGeometry relative="1" as="geometry"/>
                </mxCell>
                <mxCell id="20" style="edgeStyle=none;html=1;" edge="1" parent="1" source="9" target="11">
                    <mxGeometry relative="1" as="geometry"/>
                </mxCell>
                <mxCell id="9" value="" style="image;html=1;image=img/lib/clip_art/computers/Network_128x128.png" vertex="1" parent="1">
                    <mxGeometry x="-280" y="311.8" width="130" height="130" as="geometry"/>
                </mxCell>
                <mxCell id="11" value="" style="points=[];aspect=fixed;html=1;align=center;shadow=0;dashed=0;image;image=img/lib/allied_telesis/computer_and_terminals/Personal_Computer.svg;" vertex="1" parent="1">
                    <mxGeometry x="-425.6" y="151.8" width="45.6" height="61.800000000000004" as="geometry"/>
                </mxCell>
                <mxCell id="12" value="" style="points=[];aspect=fixed;html=1;align=center;shadow=0;dashed=0;image;image=img/lib/allied_telesis/computer_and_terminals/Personal_Computer.svg;" vertex="1" parent="1">
                    <mxGeometry x="-530" y="260.8" width="45.6" height="61.800000000000004" as="geometry"/>
                </mxCell>
                <mxCell id="13" value="" style="points=[];aspect=fixed;html=1;align=center;shadow=0;dashed=0;image;image=img/lib/allied_telesis/computer_and_terminals/Personal_Computer.svg;" vertex="1" parent="1">
                    <mxGeometry x="-540" y="401.8" width="45.6" height="61.800000000000004" as="geometry"/>
                </mxCell>
                <mxCell id="14" value="" style="points=[];aspect=fixed;html=1;align=center;shadow=0;dashed=0;image;image=img/lib/allied_telesis/computer_and_terminals/Personal_Computer.svg;" vertex="1" parent="1">
                    <mxGeometry x="-494" y="531.8" width="45.6" height="61.800000000000004" as="geometry"/>
                </mxCell>
                <mxCell id="15" value="" style="points=[];aspect=fixed;html=1;align=center;shadow=0;dashed=0;image;image=img/lib/allied_telesis/computer_and_terminals/Personal_Computer.svg;" vertex="1" parent="1">
                    <mxGeometry x="-380" y="621.8" width="45.6" height="61.800000000000004" as="geometry"/>
                </mxCell>
                <mxCell id="22" style="edgeStyle=none;html=1;" edge="1" parent="1" source="21" target="4">
                    <mxGeometry relative="1" as="geometry"/>
                </mxCell>
                <mxCell id="21" value="" style="shape=image;verticalLabelPosition=bottom;labelBackgroundColor=default;verticalAlign=top;aspect=fixed;imageAspect=0;image=data:image/png,iVBORw0KGgoAAAANSUhEUgAAASsAAABDCAYAAADEdCM3AAANm0lEQVR4nO3ceXxN577H8c/OPMlAxBBBlMQ8RZCihpjnogjloFrnoOcWjfFKidvGob1Few5abYXUWNRUxEwQDQ0RYggRISQikyQSGdb5Yye79skocVPr9vd+vbxe23qeZ61HZH/zrGf9djQWE50UJTMPFAUhhHitaDRozAxQ8hSMJKiEEK8tRUHJzEPJzsNAgkoI8VpTFFDA4I+ehxBClIWElRBCFSSshBCqIGElhFAFCSshhCpIWAkhVEHCSgihChJWQghVkLASQqiChJUQQhUkrIQQqiBhJYRQBQkrIYQqSFgJIVRBwkoIoQoSVkIIVZCwEkKogoSVEEIVJKyEEKogYSWEUAUJKyGEKkhYCSFUQcJKCKEKRn/0BP4/CV9xlgY16jH1G2/WH99UZB8rM0u8ugxndKdhNKhRDzsrOx6nJhB88wJrA9cTFBFcaIyRoRGpAdEA5Obl4jLdnYdJcaXOx7V2Q0K/OAlAVvZz7MY7F3nO/5Sdm8OTp4mERP7GuiMBHL58vNRrvcjOypapfSbR360XDWs2wMTIhEfJcQRFnOe7oxsJvnnhpc4nBMjKqlI1qeNC8NLDrJzkh4erO+Ym5iSlJeFYtRbDOw4i0GcHn41dWOI5DA0MmdDdq0zXm+T5bpn6xSY+4k5ctO7P45QEato6MKhdX3bPDWDVe0vRaDRlOlcb55aEfn6CBSNm0ca5JRqNhqT0ZOra12HsWyM4uuhnlo1fVKZzCfEiWVlVkurW9gT67KBalaoE37yA94ZPuHj7EgBVzK2Y3m8yc4fN4KOBfyUm4QGrD31f7LkmdB/DP3atIk/JK7aPmbEp7771TpnmNn7V3zh741e9YzYW1swaPI2Zg6cyuec4bj28zVe/fFvieaqYW7Fjtj8ONtU5HXGOWesXEn4vAgBzEzMmeb6L7+h5TO/3PrGJj1ixb02Z5icEyMqq0nwxYQnVqlQlNCqMAZ+O0gUVwNNnafjtXMHirf8AwGekN2bGpkWe52FSHE72jvRu3b3E673dYSB2VrY8SHxYrvmmZKTis8WPtYHrAfh4yPRSV1eD3ftS09aBp8/SeGf5RF1QATx7nsk/D6xj/o9LAPAe8iHmJmblmpv4c5KwqgRVrewY2r4/AHM3+vLseWaR/b457E9mdhY2Ftb0aPFWkX02B+0AYHLPcSVe872e2lvAH09tL++0Afj28AZAuzJ0qfVGiX3r2tcB4E7cXVKfPS2yz/azuwHtvlZjRxe8Og8nY/MDTi7ZV6ivjYU1KQHRJG64g4WpeaH24KWBZGx+wND2A/SOVzG3YvbQv3Nx+TGe+N/m/rfh7PD2p1PjDsXO/WXGFMx5w99X06BGPb6btoq7ay6RvPEuV748w8J3vCWI/w9IWFWCvm08MTI04nFqAqcjzhXbLy0zHf/jmzkSdqLYb/YtQTvJyc2hT+seOFatVWSfJnVceNO1PWmZ6fz86y8Vmvu9hPu613ZWtmXq6+rYiPoOdYvsk5iWhJt3d9rN9uTWw9scDjuBoii0cW5BFXMrvb59WvfA2NAIM2NTPFt01WuzsbCmed0m5OTmcCz8lO54nWq1OeG7h0Wj5uBcoz5346PRoKFf254c8vmJ8d1GFZpTecYAtHZuwZnPDjKq09s8z8km83kmb9Ssz7xhH7Fv/pZiV8eifCSsKoFz/hs3/N71UvvO+GEBg/3GsiN4b5Htyekp7Lt4SLvR3mNMkX3ey99Y33pmJ89zsss5a6161Z10rxPTkkrsuyfkILGJjzAzNuXgwu0M6zgQI8PC26IR929yLeY6aZnpJKQ+ITQqDCNDIzo36ajXr79bL93rAW699do6Ne6AgcaA87cukpqhXcUZaAzw//BfNKnjyuagHdSf0go37x7U+aA5M35YgIHGgBWT/HQrwPKOKdCwpjPnboTQaFo7XKa7U3tyU6asmUF2bg4eru7MGjytxK+XeDkSVpXAwaY6oA2aijIzNmXdkY0ATOjuhaGBoV67uYkZY/M31r89vBFTI5MKXW9K7wkAPE5N4NbDOyX2ffosjbeXjSMm4QF17esQ8F9rufOv31gz5X8Z4Na72NXioUva0oiuTTvpjhkZGtGndQ9uxEaSnJ5Cv7aeGGh+/3bt0tQDgMBLv5dVDHDrjYerO1djrvPXNTN1t6KKorA2cD07gvdiZmzKuBdWSuUZUyA28RFjvnxfV0aSp+Sx8eQ2Vu1fC8AHvf9S6P9HlJ+EVSUwNjIGtDVSFWVqbMrx8CAiH0XhWLUWfdt46rUP7zgIGwtrQiJDCYu+iqnxy4eVuYkZzZwa89XkpbzfczwAn+/+GkVRSh17Jfoabt7d8d22jIdJcdhbV2N8t1Fs//gHolZfYonXfKzNq+iNCbx0DIBuzX8Pq86NO2BjYc2ekAMcCD1CdWt73Bu20bV3yV+FHcofCzDcYxAAW8/sIjs3p9DcjoZpa846NHKr0JgCT54mkpmdVej41wfWAdp9PlfHRoXaRflI6UIlyMl/E7yKn7JmJmYoisL3RwP4bOxCJvccx/6Lgbr29/I33tcd0W6Ml2Xf5MiiXSW2//PAOt0bsCzSMtNZumsly3d/zZuu7RnYrg9D2/fHyd6RWYOnMazjQAZ+6kVUvLYo9cLtSySlJdOiblPsrGxJSkvW3QLuvxhIbbtaeHUezgC33py/dZEq5la0qt+cuOR4rty7prtuE0cXAHxHz8N39Lxi51cjf6Vb3jGliUuOJzEtiapWdtSv7sS1mNJv/0XpJKwqQVJ6MqDdFK4ok/xV2oYTW/lk5Bx6teqGk70jMQkPaObUmA6N3EhOT+Gnc3sAMDI0LvWcMQkP9J5Q5uRm8yQtict3w9l8eiehUWHlmmtuXi6nI85xOuIccwMWM9CtDysmfYazQz0CPlpDp/n9dP2OXjnFCI/BdG3aiZ9/3U//tr2JT3lMSGQoFibXyczOYoBbL3y2+NHRxR1DA0MCL5/QW+3ZW1cD4EZspG4fqyjRj2MqNKYs4pIfU9XKDiszy5caJ4onYVUJbsZGAtDMybXUvr6j51HfoS5bz+zSWzEV0KCtdUpMS2LX+X2M7jyMiT3G4rttma6c4cdT23XhU5bK84lfTy9UFPqyDDQGNK/bBIDIR3fIyHqm164oCnsvHCQuJZ4Tvntp49ySVvWbc/luOACHLx/XhlWzN7kRG0mDGvVYf3wziqKQnpXBsSun6N+2F84O9XS3gP/5MaCCf/OKvavxP7GlTPMuz5iyKHiymZ6V8crO+Wcne1aV4OTVs+QpedSwdcDD1b3YflZmlkzv/z4jPAaXWJ1eoGCj/S/dRmNtXgWvzsP1jlcmBYVji3cTvDSQLk08iu0XEhlKVvZzAL0nbAWrpK7NOjHghVvAAntDDgLaDfEuTT3IzcvlSP5+UoE7cXcBbUlBWZVnTGlsLW10ZSVR8fde2Xn/7CSsKsH9J7H8cvEwAJ+O+W+Mi3icDzCxxxjMjE1JSkvm2JVTRfZ50dkbv3It5jq17GqwbupKrC2qcDriHDfyV3KVSVEUgvJryCZ5ji22X2NHF92mf2zSI93xuOR4wqKv0tixEeO6juLZ80y9r8G+i4Hk5uXyzptDaNugFSGRoYWerh747QgA47qOonbVmkVev90brSs8poCNpXWRpRnjuo5Eo9EQlxzPjQe3ihwrXp6EVSX52N+H1IyndHRpx47Z/jSs+ftvQLAys2TGoL+xxGsBAD5b/HSrj9KsOxoAwMB2fbR//wNWVQUWb1tOZnYWg9r1ZcvMdTR1aqzX/lZTDzbN+AaA8HsR/Hbnsl57YP5tXaNaDTgeflpvH+3J00TO3QjBvWEbjA2NivxNEBtObCH6cQwWpuZsm/U9zg71dG22ljasnvIFp/5nPxO6j6nQmAJ17euw+oMv9IpZ+7bx5JORcwBYfeiHV/IEWGjJnlUluZdwn0F+Xuzw9qdny26EfRnEo+R4QPukSaPRoCgKS3et5Lv8ACqLTad/YonXfCxNLXicmsDuClasV0RoVBgjP5/IuqkrGezej8Hu/UjPyiAh9QkONtV1dVZ34qLx+nJyoVKIwEvH8R7yIQD7LhTer9t74aCucPTQpcJhlZ6VwYjlE9gzbxNtG7TiyoogIu7fJC8vD5faDTE1NuFS1BV2nd9XoTEFktNTGNqhP293GMDN2EhsLK11YRcUEczK/fJB7VdJVlaVKCQylJYzu+C3cwXh9yKwMrPEztKWewn32XT6J7r5DMJ327KXOmdqxlPd5+02nNha4Yr1ijoSdpKWM7swL8CXM9fP8yzrGY5Va5GVncWZ6+eZs3ER7ed4cvvR3UJjC6rRFUXhQOiRQu178vetCqrei3I15jrusz1Zvvsrbsbe5o2aztRzcOJqTARzAxbTzWcQKRmpFR4D2qeoXRb0Z9/FQzhWq0Wdao5ExUfjt3MFQ5aOLfPqWJSNxnx07dIr/YQQOl6dh/PdtFVcib5Gh7m9Sh8gKkzJVmRlJYRQBwkrIYQqSFgJIVRBwkoIoQqywS6EeO3JBrsQQjUkrIQQqiBhJYRQBQkrIYQqSFgJIVRBwkoIoQoSVkIIVZCwEkKogoSVEEIVJKyEEKogYSWEUAUJKyGEKkhYCSFUQcJKCKEKElZCCFWQsBJCqIKElRBCFSSshBCvPwX+DaUCQT7vMRkvAAAAAElFTkSuQmCC;" vertex="1" parent="1">
                    <mxGeometry x="460" y="60" width="299" height="67" as="geometry"/>
                </mxCell>
                <mxCell id="23" value="" style="triangle;whiteSpace=wrap;html=1;fillColor=#00FF00;strokeColor=#000000;" vertex="1" parent="1">
                    <mxGeometry x="470" y="101.8" width="20" height="20" as="geometry"/>
                </mxCell>
                <mxCell id="33" style="edgeStyle=none;html=1;exitX=0.5;exitY=0;exitDx=0;exitDy=0;fontFamily=Consolas;" edge="1" parent="1" source="31" target="6">
                    <mxGeometry relative="1" as="geometry"/>
                </mxCell>
                <mxCell id="31" value="ipconfig()[&quot;All Possible Addresses&quot;]" style="rounded=1;whiteSpace=wrap;html=1;fontFamily=Consolas;fillColor=#a20025;fontColor=#ffffff;strokeColor=#6F0000;" vertex="1" parent="1">
                    <mxGeometry x="470" y="581.8000000000001" width="270" height="60" as="geometry"/>
                </mxCell>
                <mxCell id="34" style="edgeStyle=none;html=1;" edge="1" parent="1" source="9">
                    <mxGeometry relative="1" as="geometry">
                        <mxPoint x="-336.8648799553323" y="306.8" as="sourcePoint"/>
                        <mxPoint x="-450" y="241.8" as="targetPoint"/>
                    </mxGeometry>
                </mxCell>
                <mxCell id="35" style="edgeStyle=none;html=1;" edge="1" parent="1" source="9">
                    <mxGeometry relative="1" as="geometry">
                        <mxPoint x="-370" y="314.0222222222223" as="sourcePoint"/>
                        <mxPoint x="-490" y="361.8" as="targetPoint"/>
                    </mxGeometry>
                </mxCell>
                <mxCell id="36" style="edgeStyle=none;html=1;" edge="1" parent="1" source="9">
                    <mxGeometry relative="1" as="geometry">
                        <mxPoint x="-360" y="324.0222222222223" as="sourcePoint"/>
                        <mxPoint x="-470" y="491.8" as="targetPoint"/>
                    </mxGeometry>
                </mxCell>
                <mxCell id="37" style="edgeStyle=none;html=1;" edge="1" parent="1" source="9">
                    <mxGeometry relative="1" as="geometry">
                        <mxPoint x="-350" y="334.0222222222223" as="sourcePoint"/>
                        <mxPoint x="-410" y="601.8" as="targetPoint"/>
                    </mxGeometry>
                </mxCell>
                <mxCell id="38" value="" style="edgeStyle=none;html=1;exitX=0;exitY=0.5;exitDx=0;exitDy=0;entryX=1;entryY=0.5;entryDx=0;entryDy=0;endArrow=none;" edge="1" parent="1" source="6" target="29">
                    <mxGeometry relative="1" as="geometry">
                        <mxPoint x="480" y="351.8" as="sourcePoint"/>
                        <mxPoint x="170" y="366.8" as="targetPoint"/>
                    </mxGeometry>
                </mxCell>
                <mxCell id="29" value="&lt;font style=&quot;font-size: 18px;&quot;&gt;Ether&lt;/font&gt;" style="rounded=1;whiteSpace=wrap;html=1;fontFamily=Consolas;fillColor=#a20025;fontColor=#ffffff;strokeColor=#6F0000;" vertex="1" parent="1">
                    <mxGeometry x="-30" y="281.8" width="190" height="60" as="geometry"/>
                </mxCell>
                <mxCell id="39" value="&lt;font style=&quot;&quot;&gt;&lt;span style=&quot;font-size: 18px;&quot;&gt;IP&lt;br&gt;&lt;/span&gt;&lt;/font&gt;&lt;font style=&quot;font-size: 11px;&quot;&gt;dst=all_possible_addresses&lt;/font&gt;" style="rounded=1;whiteSpace=wrap;html=1;fontFamily=Consolas;fillColor=#60a917;fontColor=#ffffff;strokeColor=#2D7600;" vertex="1" parent="1">
                    <mxGeometry x="-20" y="221.8" width="170" height="60" as="geometry"/>
                </mxCell>
                <mxCell id="40" value="&lt;font style=&quot;&quot;&gt;&lt;span style=&quot;font-size: 18px;&quot;&gt;ICMP&lt;br&gt;&lt;/span&gt;&lt;/font&gt;&lt;font style=&quot;font-size: 11px;&quot;&gt;type=8 (echo-request)&lt;/font&gt;" style="rounded=1;whiteSpace=wrap;html=1;fontFamily=Consolas;fillColor=#0050ef;fontColor=#ffffff;strokeColor=#001DBC;" vertex="1" parent="1">
                    <mxGeometry x="-10" y="161.8" width="150" height="60" as="geometry"/>
                </mxCell>
                <mxCell id="42" value="&lt;font style=&quot;&quot;&gt;&lt;span style=&quot;font-size: 18px;&quot;&gt;IP&lt;br&gt;&lt;/span&gt;&lt;/font&gt;&lt;font style=&quot;font-size: 11px;&quot;&gt;dst=here&lt;/font&gt;" style="rounded=1;whiteSpace=wrap;html=1;fontFamily=Consolas;fillColor=#488011;fontColor=#ffffff;strokeColor=#2D7600;" vertex="1" parent="1">
                    <mxGeometry x="-100" y="441.8" width="170" height="60" as="geometry"/>
                </mxCell>
                <mxCell id="43" value="&lt;font style=&quot;&quot;&gt;&lt;span style=&quot;font-size: 18px;&quot;&gt;ICMP&lt;br&gt;&lt;/span&gt;&lt;/font&gt;&lt;font style=&quot;font-size: 11px;&quot;&gt;type=0 (echo-reply)&lt;/font&gt;" style="rounded=1;whiteSpace=wrap;html=1;fontFamily=Consolas;fillColor=#002F8C;fontColor=#ffffff;strokeColor=#001DBC;" vertex="1" parent="1">
                    <mxGeometry x="-90" y="381.8" width="150" height="60" as="geometry"/>
                </mxCell>
                <mxCell id="44" value="" style="endArrow=classic;html=1;fontFamily=Consolas;fontSize=11;entryX=0;entryY=1;entryDx=0;entryDy=0;startArrow=none;" edge="1" parent="1" source="41" target="6">
                    <mxGeometry width="50" height="50" relative="1" as="geometry">
                        <mxPoint x="50" y="791.8" as="sourcePoint"/>
                        <mxPoint x="100" y="741.8" as="targetPoint"/>
                    </mxGeometry>
                </mxCell>
                <mxCell id="45" value="" style="endArrow=none;html=1;fontFamily=Consolas;fontSize=11;" edge="1" parent="1" source="15" target="41">
                    <mxGeometry width="50" height="50" relative="1" as="geometry">
                        <mxPoint x="-334.4000000000001" y="638.7755617977527" as="sourcePoint"/>
                        <mxPoint x="-190" y="601.8" as="targetPoint"/>
                    </mxGeometry>
                </mxCell>
                <mxCell id="41" value="&lt;font style=&quot;font-size: 18px;&quot;&gt;Ether&lt;/font&gt;" style="rounded=1;whiteSpace=wrap;html=1;fontFamily=Consolas;fillColor=#70001A;fontColor=#ffffff;strokeColor=#6F0000;" vertex="1" parent="1">
                    <mxGeometry x="-110" y="501.8" width="190" height="60" as="geometry"/>
                </mxCell>
                <mxCell id="48" value="Network Storage" style="rounded=1;whiteSpace=wrap;html=1;fontFamily=Consolas;fillColor=#a20025;fontColor=#ffffff;strokeColor=#6F0000;fontSize=22;" vertex="1" parent="1">
                    <mxGeometry x="210" y="660" width="270" height="60" as="geometry"/>
                </mxCell>
                <mxCell id="49" style="edgeStyle=none;html=1;fontFamily=Consolas;" edge="1" parent="1" source="6" target="48">
                    <mxGeometry relative="1" as="geometry">
                        <mxPoint x="537.5" y="1000" as="sourcePoint"/>
                        <mxPoint x="653.7711864406781" y="440" as="targetPoint"/>
                    </mxGeometry>
                </mxCell>
                <mxCell id="55" value="" style="endArrow=none;dashed=1;html=1;fontFamily=Consolas;fontSize=32;fontColor=#195EFF;entryX=0.5;entryY=1;entryDx=0;entryDy=0;" edge="1" parent="1" target="59">
                    <mxGeometry width="50" height="50" relative="1" as="geometry">
                        <mxPoint x="1076" y="890" as="sourcePoint"/>
                        <mxPoint x="1106" y="80" as="targetPoint"/>
                    </mxGeometry>
                </mxCell>
                <mxCell id="56" value="" style="points=[];aspect=fixed;html=1;align=center;shadow=0;dashed=0;image;image=img/lib/allied_telesis/computer_and_terminals/Personal_Computer.svg;" vertex="1" parent="1">
                    <mxGeometry x="1590" y="10" width="45.6" height="61.800000000000004" as="geometry"/>
                </mxCell>
                <mxCell id="57" value="" style="endArrow=none;dashed=1;html=1;fontFamily=Consolas;fontSize=32;fontColor=#195EFF;entryX=0.497;entryY=1.003;entryDx=0;entryDy=0;entryPerimeter=0;" edge="1" parent="1" target="56">
                    <mxGeometry width="50" height="50" relative="1" as="geometry">
                        <mxPoint x="1613" y="891.8" as="sourcePoint"/>
                        <mxPoint x="1491.8" y="101.8" as="targetPoint"/>
                    </mxGeometry>
                </mxCell>
                <mxCell id="59" value="" style="image;html=1;image=img/lib/clip_art/computers/Network_128x128.png" vertex="1" parent="1">
                    <mxGeometry x="1020" y="10" width="110" height="60" as="geometry"/>
                </mxCell>
                <mxCell id="63" value="" style="endArrow=classic;html=1;fontFamily=Consolas;fontSize=32;fontColor=#195EFF;strokeWidth=4;" edge="1" parent="1">
                    <mxGeometry width="50" height="50" relative="1" as="geometry">
                        <mxPoint x="1080" y="120" as="sourcePoint"/>
                        <mxPoint x="1610" y="290" as="targetPoint"/>
                    </mxGeometry>
                </mxCell>
                <mxCell id="60" value="&lt;font style=&quot;font-size: 18px;&quot;&gt;Ether&lt;/font&gt;" style="rounded=1;whiteSpace=wrap;html=1;fontFamily=Consolas;fillColor=#a20025;fontColor=#ffffff;strokeColor=#6F0000;horizontal=0;" vertex="1" parent="1">
                    <mxGeometry x="1191" y="177" width="30" height="60" as="geometry"/>
                </mxCell>
                <mxCell id="61" value="&lt;font style=&quot;&quot;&gt;&lt;span style=&quot;font-size: 18px;&quot;&gt;IP&lt;br&gt;&lt;/span&gt;&lt;/font&gt;&lt;font style=&quot;font-size: 11px;&quot;&gt;dst=all_possible_addresses&lt;/font&gt;" style="rounded=1;whiteSpace=wrap;html=1;fontFamily=Consolas;fillColor=#60a917;fontColor=#ffffff;strokeColor=#2D7600;" vertex="1" parent="1">
                    <mxGeometry x="1221" y="177" width="170" height="60" as="geometry"/>
                </mxCell>
                <mxCell id="62" value="&lt;font style=&quot;&quot;&gt;&lt;span style=&quot;font-size: 18px;&quot;&gt;ICMP&lt;br&gt;&lt;/span&gt;&lt;/font&gt;&lt;font style=&quot;font-size: 11px;&quot;&gt;type=8 (echo-request)&lt;/font&gt;" style="rounded=1;whiteSpace=wrap;html=1;fontFamily=Consolas;fillColor=#0050ef;fontColor=#ffffff;strokeColor=#001DBC;" vertex="1" parent="1">
                    <mxGeometry x="1391" y="177" width="150" height="60" as="geometry"/>
                </mxCell>
                <mxCell id="64" value="" style="endArrow=classic;html=1;fontFamily=Consolas;fontSize=32;fontColor=#195EFF;strokeWidth=4;" edge="1" parent="1">
                    <mxGeometry width="50" height="50" relative="1" as="geometry">
                        <mxPoint x="1610" y="440" as="sourcePoint"/>
                        <mxPoint x="1080" y="600" as="targetPoint"/>
                    </mxGeometry>
                </mxCell>
                <mxCell id="65" value="&lt;font style=&quot;&quot;&gt;&lt;span style=&quot;font-size: 18px;&quot;&gt;IP&lt;br&gt;&lt;/span&gt;&lt;/font&gt;&lt;font style=&quot;font-size: 11px;&quot;&gt;dst=here&lt;/font&gt;" style="rounded=1;whiteSpace=wrap;html=1;fontFamily=Consolas;fillColor=#488011;fontColor=#ffffff;strokeColor=#2D7600;" vertex="1" parent="1">
                    <mxGeometry x="1205" y="490" width="170" height="60" as="geometry"/>
                </mxCell>
                <mxCell id="66" value="&lt;font style=&quot;&quot;&gt;&lt;span style=&quot;font-size: 18px;&quot;&gt;ICMP&lt;br&gt;&lt;/span&gt;&lt;/font&gt;&lt;font style=&quot;font-size: 11px;&quot;&gt;type=0 (echo-reply)&lt;/font&gt;" style="rounded=1;whiteSpace=wrap;html=1;fontFamily=Consolas;fillColor=#002F8C;fontColor=#ffffff;strokeColor=#001DBC;" vertex="1" parent="1">
                    <mxGeometry x="1375" y="490" width="150" height="60" as="geometry"/>
                </mxCell>
                <mxCell id="67" value="&lt;font style=&quot;font-size: 18px;&quot;&gt;Ether&lt;/font&gt;" style="rounded=1;whiteSpace=wrap;html=1;fontFamily=Consolas;fillColor=#70001A;fontColor=#ffffff;strokeColor=#6F0000;horizontal=0;" vertex="1" parent="1">
                    <mxGeometry x="1180" y="490" width="25" height="60" as="geometry"/>
                </mxCell>
                <mxCell id="68" value="Network Storage" style="shape=datastore;whiteSpace=wrap;html=1;strokeWidth=2;fontFamily=Consolas;fontSize=32;gradientDirection=radial;" vertex="1" parent="1">
                    <mxGeometry x="890" y="790" width="160" height="180" as="geometry"/>
                </mxCell>
                <mxCell id="69" value="" style="endArrow=classic;html=1;fontFamily=Consolas;fontSize=32;fontColor=#195EFF;strokeWidth=4;startArrow=none;" edge="1" parent="1" source="70" target="68">
                    <mxGeometry width="50" height="50" relative="1" as="geometry">
                        <mxPoint x="1080" y="710" as="sourcePoint"/>
                        <mxPoint x="1090" y="610" as="targetPoint"/>
                    </mxGeometry>
                </mxCell>
                <mxCell id="71" value="" style="endArrow=none;html=1;fontFamily=Consolas;fontSize=32;fontColor=#195EFF;strokeWidth=4;" edge="1" parent="1" target="70">
                    <mxGeometry width="50" height="50" relative="1" as="geometry">
                        <mxPoint x="1080" y="660" as="sourcePoint"/>
                        <mxPoint x="1160" y="770" as="targetPoint"/>
                    </mxGeometry>
                </mxCell>
                <mxCell id="70" value="&lt;font style=&quot;&quot;&gt;&lt;span style=&quot;font-size: 18px;&quot;&gt;IP&lt;/span&gt;&lt;/font&gt;" style="rounded=1;whiteSpace=wrap;html=1;fontFamily=Consolas;fillColor=#488011;fontColor=#ffffff;strokeColor=#2D7600;" vertex="1" parent="1">
                    <mxGeometry x="1018" y="712" width="50" height="30" as="geometry"/>
                </mxCell>
                <mxCell id="73" value="" style="endArrow=none;html=1;strokeWidth=4;fontFamily=Consolas;fontSize=32;fontColor=#195EFF;" edge="1" parent="1">
                    <mxGeometry width="50" height="50" relative="1" as="geometry">
                        <mxPoint x="850" y="1080" as="sourcePoint"/>
                        <mxPoint x="850" y="20" as="targetPoint"/>
                    </mxGeometry>
                </mxCell>
            </root>
        </mxGraphModel>
    </diagram>
</mxfile>
